<svg xmlns="http://www.w3.org/2000/svg" id="Layer_1" data-name="Layer 1" viewBox="0 0 362.9 120.07"><circle cx="60.04" cy="60.04" r="60.04" style="fill:#c90c0f"></circle><circle cx="60.04" cy="60.04" r="55.83" style="fill:#c90c0f;stroke:#fff;stroke-miterlimit:10"></circle><polygon points="63.99 30.45 63.99 58.09 95.44 58.09 95.44 59.77 63.99 59.77 63.99 91.4 62.04 91.4 62.04 28.67 97.83 28.67 97.83 30.45 63.99 30.45" style="fill:#fff"></polygon><path d="M22.24,91.4,41.29,59.68a26,26,0,0,1-6.34-.8,18,18,0,0,1-5.89-2.61,14.24,14.24,0,0,1-4.34-4.74A14.59,14.59,0,0,1,23,44.18a15.27,15.27,0,0,1,1.77-7.8,13.48,13.48,0,0,1,4.56-4.74,17.91,17.91,0,0,1,6.34-2.35,40.82,40.82,0,0,1,7-.62H60.07V91.4h-2V59.77H43.41l-19,31.63Zm7.31-36.95q4.56,3.64,13.24,3.64H58.12V30.36H43.77a38.33,38.33,0,0,0-7,.62,17.8,17.8,0,0,0-6,2.17,11.83,11.83,0,0,0-4.21,4.25A13.19,13.19,0,0,0,25,44.18Q25,50.83,29.55,54.45Z" style="fill:#fff"></path><path d="M135.75,58.54h-4.61V13.23h13.32a28.57,28.57,0,0,1,6.17.64A14,14,0,0,1,155.56,16a9.87,9.87,0,0,1,3.23,3.75,12.44,12.44,0,0,1,1.15,5.63,11.32,11.32,0,0,1-.89,4.54,11.07,11.07,0,0,1-2.44,3.55,11.31,11.31,0,0,1-3.64,2.4A15.84,15.84,0,0,1,148.36,37l13.25,21.56H156L143.43,37.36h-7.68Zm0-25.15h8q5.56,0,8.58-2a6.81,6.81,0,0,0,3-6.05,7.8,7.8,0,0,0-.83-3.78,6.78,6.78,0,0,0-2.3-2.49,10.53,10.53,0,0,0-3.59-1.41,22.36,22.36,0,0,0-4.67-.45h-8.19Z" style="fill:#fff"></path><path d="M191.88,42.67v1a8.4,8.4,0,0,1-.07,1.09H167a11.51,11.51,0,0,0,.9,4.22,10.53,10.53,0,0,0,2.3,3.46,11.24,11.24,0,0,0,3.46,2.34A11.45,11.45,0,0,0,183.78,54a11.82,11.82,0,0,0,3.75-3.61L190.79,53a16.24,16.24,0,0,1-5.92,4.86,16.56,16.56,0,0,1-6.94,1.47,15.93,15.93,0,0,1-6.18-1.18,14.51,14.51,0,0,1-4.9-3.3,15.72,15.72,0,0,1-3.23-5,16.32,16.32,0,0,1-1.18-6.27,16.69,16.69,0,0,1,1.15-6.27,15.2,15.2,0,0,1,3.2-5,14.83,14.83,0,0,1,10.75-4.48A15.25,15.25,0,0,1,183.75,29a12.7,12.7,0,0,1,4.48,3.2,13.81,13.81,0,0,1,2.72,4.7A17.48,17.48,0,0,1,191.88,42.67Zm-4.42-1.41a10.76,10.76,0,0,0-2.72-7q-2.52-2.79-7.2-2.79a10.14,10.14,0,0,0-4,.8,10.84,10.84,0,0,0-5.5,5.31,9.94,9.94,0,0,0-1,3.68Z" style="fill:#fff"></path><path d="M214.6,35.7a7.64,7.64,0,0,0-2.91-3,8.44,8.44,0,0,0-4.45-1.19,10.69,10.69,0,0,0-2.31.26,6.3,6.3,0,0,0-2,.83A4.4,4.4,0,0,0,201.45,34a3.93,3.93,0,0,0-.55,2.11,3.64,3.64,0,0,0,1.73,3.24,16.76,16.76,0,0,0,5.44,1.88q5.31,1.1,7.84,3.17a6.88,6.88,0,0,1,2.53,5.6,8.68,8.68,0,0,1-1,4.32,8.59,8.59,0,0,1-2.6,2.88,10.35,10.35,0,0,1-3.61,1.6,17.55,17.55,0,0,1-4.07.48,16.21,16.21,0,0,1-6.59-1.41,12.22,12.22,0,0,1-5.25-4.41l3.46-2.56a9.75,9.75,0,0,0,8.32,4.67,13.79,13.79,0,0,0,2.69-.26,6.3,6.3,0,0,0,2.24-.89,4.61,4.61,0,0,0,2.11-4.1,3.8,3.8,0,0,0-2.27-3.55,29.59,29.59,0,0,0-6.56-2.21c-.9-.21-1.85-.48-2.85-.8a9.72,9.72,0,0,1-2.78-1.41,7.53,7.53,0,0,1-2.12-2.33,6.87,6.87,0,0,1-.83-3.52,8.05,8.05,0,0,1,.9-3.94A8,8,0,0,1,200,29.9a10.69,10.69,0,0,1,3.42-1.56,15,15,0,0,1,4-.52,13.92,13.92,0,0,1,6.08,1.41,9.86,9.86,0,0,1,4.42,4Z" style="fill:#fff"></path><path d="M251.78,42.67v1a10.52,10.52,0,0,1-.06,1.09H226.89a11.71,11.71,0,0,0,.89,4.22,10.55,10.55,0,0,0,2.31,3.46,11.2,11.2,0,0,0,3.45,2.34A11.47,11.47,0,0,0,243.69,54a11.68,11.68,0,0,0,3.74-3.61L250.69,53a16.16,16.16,0,0,1-5.92,4.86,16.56,16.56,0,0,1-6.94,1.47,15.93,15.93,0,0,1-6.18-1.18,14.37,14.37,0,0,1-4.89-3.3,15.39,15.39,0,0,1-3.23-5,16.32,16.32,0,0,1-1.19-6.27,16.89,16.89,0,0,1,1.15-6.27,15.36,15.36,0,0,1,3.2-5,14.83,14.83,0,0,1,10.76-4.48,15.24,15.24,0,0,1,6.2,1.19,12.61,12.61,0,0,1,4.48,3.2,13.65,13.65,0,0,1,2.72,4.7A17.48,17.48,0,0,1,251.78,42.67Zm-4.41-1.41a10.81,10.81,0,0,0-2.72-7,9.23,9.23,0,0,0-7.2-2.79,10.15,10.15,0,0,0-4,.8,10.84,10.84,0,0,0-5.5,5.31,9.94,9.94,0,0,0-1,3.68Z" style="fill:#fff"></path><path d="M277.06,39.16q0-3.87-2.05-5.78a8.42,8.42,0,0,0-5.95-1.91,12.86,12.86,0,0,0-5,1,11.91,11.91,0,0,0-3.9,2.56l-2.44-2.88a14.32,14.32,0,0,1,4.9-3.07,18.42,18.42,0,0,1,6.88-1.22,14.79,14.79,0,0,1,4.54.68,10.79,10.79,0,0,1,3.72,2,9.29,9.29,0,0,1,2.49,3.39,11.88,11.88,0,0,1,.9,4.8V51.82c0,1.16,0,2.35.13,3.59a24.14,24.14,0,0,0,.38,3.13h-3.9c-.13-.72-.24-1.51-.32-2.36a23.94,23.94,0,0,1-.13-2.5h-.13A12.57,12.57,0,0,1,272.55,58a14.68,14.68,0,0,1-9.79.83,9.81,9.81,0,0,1-3.33-1.57,8.91,8.91,0,0,1-2.5-2.83,8.42,8.42,0,0,1-1-4.24,8.1,8.1,0,0,1,1.76-5.49,10.55,10.55,0,0,1,4.71-3,27.16,27.16,0,0,1,6.75-1.29q3.81-.28,7.9-.29Zm-1.28,4.41c-1.79,0-3.59.07-5.41.22a23.43,23.43,0,0,0-4.92.9,9.35,9.35,0,0,0-3.62,2A4.35,4.35,0,0,0,260.42,50a5.41,5.41,0,0,0,.61,2.69,4.92,4.92,0,0,0,1.63,1.76,6.85,6.85,0,0,0,2.27,1,11.42,11.42,0,0,0,2.53.29,10,10,0,0,0,4.1-.8,8.87,8.87,0,0,0,3-2.18,9.65,9.65,0,0,0,1.85-3.17,11,11,0,0,0,.64-3.77V43.57Z" style="fill:#fff"></path><path d="M287.17,32.05c0-1.28-.1-2.43-.19-3.46h4.16c.09.81.15,1.71.19,2.69s.07,1.79.07,2.43h.12a10.65,10.65,0,0,1,9.61-5.89c.55,0,1.05,0,1.5.07a8.42,8.42,0,0,1,1.37.25l-.57,4.16a8.39,8.39,0,0,0-1.28-.25,12.07,12.07,0,0,0-1.79-.13,8.81,8.81,0,0,0-3.33.64,6.93,6.93,0,0,0-2.78,2,10.3,10.3,0,0,0-1.92,3.51,15.63,15.63,0,0,0-.74,5.14V58.54h-4.35V35.18C287.24,34.37,287.21,33.33,287.17,32.05Z" style="fill:#fff"></path><path d="M328.13,35.44A8.25,8.25,0,0,0,325,32.59a9.42,9.42,0,0,0-4.51-1.12,11.57,11.57,0,0,0-4.73.93A10.68,10.68,0,0,0,312.1,35a11.27,11.27,0,0,0-2.3,3.84,13.73,13.73,0,0,0-.8,4.77,13.46,13.46,0,0,0,.8,4.73,11.59,11.59,0,0,0,2.27,3.81,10.33,10.33,0,0,0,3.58,2.56,11.66,11.66,0,0,0,4.74.93,9.59,9.59,0,0,0,8.13-3.9l3.26,2.43a14.17,14.17,0,0,1-4.7,3.77,14.68,14.68,0,0,1-6.69,1.41,17.5,17.5,0,0,1-6.59-1.18,14.57,14.57,0,0,1-5-3.3,14.91,14.91,0,0,1-3.23-5,17.67,17.67,0,0,1,0-12.54,15,15,0,0,1,3.23-5,14.69,14.69,0,0,1,5-3.29,17.5,17.5,0,0,1,6.59-1.19,15.55,15.55,0,0,1,6.11,1.32,11.88,11.88,0,0,1,5,3.87Z" style="fill:#fff"></path><path d="M340.61,33.52a9,9,0,0,1,4-4.16,12.45,12.45,0,0,1,6-1.54c3.8,0,6.64,1.13,8.54,3.4a13.45,13.45,0,0,1,2.85,9V58.54H357.7V42a22.44,22.44,0,0,0-.38-4.29,9.07,9.07,0,0,0-1.32-3.3,6.33,6.33,0,0,0-2.49-2.14,9,9,0,0,0-3.94-.77,8.41,8.41,0,0,0-3.36.71,8.2,8.2,0,0,0-2.91,2.14A10.77,10.77,0,0,0,341.25,38a15.93,15.93,0,0,0-.77,5.21V58.54h-4.35V10.16h4.35V33.52Z" style="fill:#fff"></path><path d="M132.57,65.31V85.22h22.72V86.5H132.57v22.84h-1.41V64H157v1.28Z" style="fill:#fff"></path><path d="M161.33,94.3a18.24,18.24,0,0,0,.79,5.32,14.41,14.41,0,0,0,2.44,4.7,12.15,12.15,0,0,0,4.12,3.36,12.82,12.82,0,0,0,5.89,1.28,13.26,13.26,0,0,0,6.15-1.38,13.52,13.52,0,0,0,4.67-4l1,.9a15.21,15.21,0,0,1-17.79,4.58,13.84,13.84,0,0,1-4.64-3.3,14.71,14.71,0,0,1-3-5.06,18.89,18.89,0,0,1-1.05-6.4A16.83,16.83,0,0,1,161,88.16a14.93,14.93,0,0,1,3-4.86,13,13,0,0,1,4.46-3.17A13.59,13.59,0,0,1,174,79a13.94,13.94,0,0,1,6,1.21,12.69,12.69,0,0,1,4.27,3.2,13.43,13.43,0,0,1,2.54,4.52,16.47,16.47,0,0,1,.83,5.15V94.3Zm24.89-1.21a15.14,15.14,0,0,0-1-5.25,12.57,12.57,0,0,0-2.53-4.07,11.21,11.21,0,0,0-3.84-2.62,12.9,12.9,0,0,0-5-.93,11.14,11.14,0,0,0-5.7,1.38A12.76,12.76,0,0,0,164.3,85a14.42,14.42,0,0,0-2.21,4.23,12.93,12.93,0,0,0-.7,3.87Z" style="fill:#fff"></path><path d="M215.84,102.69c0,1.11,0,2.29.16,3.55s.22,2.29.35,3.1H215a13,13,0,0,1-.19-1.57c0-.61-.09-1.25-.16-1.91s-.11-1.32-.13-2,0-1.17,0-1.6h-.19a10.46,10.46,0,0,1-4.42,6,12.5,12.5,0,0,1-6.72,1.95,12.7,12.7,0,0,1-3.55-.51,10.26,10.26,0,0,1-3.17-1.54,7.79,7.79,0,0,1-2.27-2.62,7.93,7.93,0,0,1-.86-3.78,7.56,7.56,0,0,1,1.63-5.06,11.06,11.06,0,0,1,4.06-3,18.59,18.59,0,0,1,5.22-1.38,45.68,45.68,0,0,1,5.09-.32h5.12V89.69q0-4.92-2.63-7.19A10.06,10.06,0,0,0,205,80.22a12.45,12.45,0,0,0-4.9,1A14.55,14.55,0,0,0,196,83.74l-.77-1.09a14.13,14.13,0,0,1,4.64-2.71A15,15,0,0,1,205,79q5.06,0,8,2.59c1.94,1.73,2.92,4.45,2.92,8.16Zm-1.41-9.41h-4.55a48.83,48.83,0,0,0-5.12.29,18.28,18.28,0,0,0-4.92,1.18,9.34,9.34,0,0,0-3.68,2.56,6.93,6.93,0,0,0,1.4,10.11,8.91,8.91,0,0,0,2.76,1.22,11.29,11.29,0,0,0,2.84.38,11,11,0,0,0,5.44-1.21,10.22,10.22,0,0,0,3.49-3.11,11.78,11.78,0,0,0,1.83-4.16,20.18,20.18,0,0,0,.51-4.44Z" style="fill:#fff"></path><path d="M237.45,109.92a10.7,10.7,0,0,1-2,.19q-3.45,0-4.92-2a7.85,7.85,0,0,1-1.48-4.9V81.12h-6.4V79.9H229V71.26h1.41V79.9h8.64v1.22h-8.64v22.14q0,3,1.47,4.32a5.62,5.62,0,0,0,3.9,1.32,9,9,0,0,0,3.27-.58l.19,1.09A9.34,9.34,0,0,1,237.45,109.92Z" style="fill:#fff"></path><path d="M266,105.28a11.9,11.9,0,0,1-2.72,2.72,12.07,12.07,0,0,1-3.33,1.66,11.85,11.85,0,0,1-3.71.58,10.75,10.75,0,0,1-5.12-1.09,8.88,8.88,0,0,1-3.27-2.88,11.74,11.74,0,0,1-1.72-4,20.41,20.41,0,0,1-.51-4.55V79.9H247V97.57a20.32,20.32,0,0,0,.39,3.87,10.26,10.26,0,0,0,1.44,3.68,8.88,8.88,0,0,0,2.81,2.78A8.4,8.4,0,0,0,256.2,109a10.72,10.72,0,0,0,8.29-3.84,14.17,14.17,0,0,0,2.49-4.51,18.22,18.22,0,0,0,.93-6V79.9h1.41v22c0,.47,0,1,0,1.73s0,1.37.07,2.08.05,1.37.09,2,.09,1.18.13,1.6h-1.41c0-.42-.07-1-.1-1.6s0-1.33-.06-2.08,0-1.47-.06-2.17,0-1.34,0-1.89h-.12A13.9,13.9,0,0,1,266,105.28Z" style="fill:#fff"></path><path d="M283.33,81a10.28,10.28,0,0,1,6.08-2H290a3.26,3.26,0,0,1,.58.06v1.22a2.14,2.14,0,0,0-.48-.07h-.36a8.89,8.89,0,0,0-4.8,1.25,10.35,10.35,0,0,0-3.26,3.26,15.25,15.25,0,0,0-1.89,4.49,20.59,20.59,0,0,0-.61,4.89v15.23h-1.4v-22c0-.47,0-1,0-1.73s0-1.38-.06-2.08-.05-1.38-.1-2-.08-1.17-.12-1.6h1.4c0,.43.08,1,.1,1.6s0,1.34.06,2.08.05,1.48.07,2.18,0,1.33,0,1.89h.13A11.67,11.67,0,0,1,283.33,81Z" style="fill:#fff"></path><path d="M294.28,94.3a17.92,17.92,0,0,0,.8,5.32,14.2,14.2,0,0,0,2.43,4.7,12.18,12.18,0,0,0,4.13,3.36,12.76,12.76,0,0,0,5.89,1.28,13.25,13.25,0,0,0,6.14-1.38,13.52,13.52,0,0,0,4.67-4l1,.9a15.22,15.22,0,0,1-17.8,4.58,13.94,13.94,0,0,1-4.64-3.3,14.53,14.53,0,0,1-3-5.06,18.64,18.64,0,0,1-1.06-6.4A16.83,16.83,0,0,1,294,88.16a15.1,15.1,0,0,1,3-4.86,13.13,13.13,0,0,1,4.46-3.17A13.59,13.59,0,0,1,306.92,79a14,14,0,0,1,6,1.21,12.65,12.65,0,0,1,4.26,3.2,13.27,13.27,0,0,1,2.54,4.52,16.47,16.47,0,0,1,.83,5.15V94.3Zm24.89-1.21a15.14,15.14,0,0,0-1-5.25,12.57,12.57,0,0,0-2.53-4.07,11,11,0,0,0-3.84-2.62,12.86,12.86,0,0,0-5-.93,11.08,11.08,0,0,0-5.69,1.38A12.92,12.92,0,0,0,297.25,85a14.15,14.15,0,0,0-2.2,4.23,13,13,0,0,0-.71,3.87Z" style="fill:#fff"></path><path d="M346.31,101.66a8,8,0,0,1-.77,3.56,7.83,7.83,0,0,1-2.08,2.65,9.34,9.34,0,0,1-3,1.67,11.77,11.77,0,0,1-3.71.57,13.76,13.76,0,0,1-5.92-1.25,11,11,0,0,1-4.38-3.68l1.15-.76a10.63,10.63,0,0,0,9.21,4.48,9.52,9.52,0,0,0,2.85-.45,8.52,8.52,0,0,0,2.63-1.35,6.83,6.83,0,0,0,1.92-2.24,6.28,6.28,0,0,0,.73-3.07,5.56,5.56,0,0,0-.93-3.33,6.84,6.84,0,0,0-2.33-2,14.64,14.64,0,0,0-3.11-1.25l-3.16-.87a31.25,31.25,0,0,1-3-1,8.89,8.89,0,0,1-2.47-1.41,6.18,6.18,0,0,1-1.66-2.14,7.37,7.37,0,0,1-.61-3.2,6.88,6.88,0,0,1,.77-3.33,6.77,6.77,0,0,1,2.05-2.33,9.37,9.37,0,0,1,2.91-1.41,11.66,11.66,0,0,1,3.3-.48q6,0,9,4.29l-1.22.7a9.72,9.72,0,0,0-3.32-2.85,9.92,9.92,0,0,0-4.48-.93,11.14,11.14,0,0,0-2.56.32,7.89,7.89,0,0,0-2.47,1.06,6.07,6.07,0,0,0-1.85,2,5.59,5.59,0,0,0-.74,3,6.57,6.57,0,0,0,.61,3.07,4.85,4.85,0,0,0,1.69,1.85A10.69,10.69,0,0,0,334,92.61q1.53.48,3.39.93a33.64,33.64,0,0,1,3.36,1,12.24,12.24,0,0,1,2.88,1.51,6.56,6.56,0,0,1,2,2.24A6.82,6.82,0,0,1,346.31,101.66Z" style="fill:#fff"></path><circle cx="358.34" cy="105.36" r="4.56" style="fill:#fff"></circle></svg>